<svg width="1099" height="542" viewBox="0 0 1099 542" fill="none" xmlns="http://www.w3.org/2000/svg">
<g clip-path="url(#clip0_1_3)">
<mask id="mask0_1_3" style="mask-type:luminance" maskUnits="userSpaceOnUse" x="0" y="0" width="1099" height="542">
<path d="M1099 0H0V542H1099V0Z" fill="white"/>
</mask>
<g mask="url(#mask0_1_3)">
<path d="M35.1486 195.535C-98.5742 375.745 337.287 147.937 267.77 387.543L259.916 418.323L-735.001 167.746L-688.353 -15.0682C-587.352 118.238 144.639 47.9797 35.1486 195.535Z" fill="url(#paint0_linear_1_3)"/>
<path d="M-61.5388 257.355C-195.261 437.566 300.873 207.077 231.356 479.521L223.502 510.3L-757.25 248.213L-710.603 65.3987C-609.601 198.705 47.9518 109.8 -61.5388 257.355Z" fill="url(#paint1_linear_1_3)"/>
<path d="M-155.771 312.098C-289.494 492.308 248.662 296.717 179.145 536.323L171.292 567.102L-773.397 322.515L-726.749 139.701C-625.754 273.007 -46.2809 164.543 -155.771 312.098Z" fill="url(#paint2_linear_1_3)"/>
<path d="M-253.655 377.35C-387.377 557.56 187.508 353.676 117.991 609.698L112.937 629.505L-793.234 395.642L-749.388 223.802C-648.387 357.108 -144.164 229.795 -253.655 377.35Z" fill="url(#paint3_linear_1_3)"/>
<path d="M395.01 367.404C528.732 187.193 92.8718 415.001 162.389 175.395L170.242 144.616L1165.16 395.193L1118.52 578.009C1017.51 444.7 285.519 514.959 395.01 367.404Z" fill="url(#paint4_linear_1_3)"/>
<path d="M491.698 305.583C625.422 125.373 129.286 355.861 198.803 83.4176L206.656 52.6385L1187.41 314.726L1140.76 497.54C1039.76 364.233 382.207 453.138 491.698 305.583Z" fill="url(#paint5_linear_1_3)"/>
<path d="M585.931 250.841C719.65 70.6302 181.496 266.222 251.013 26.6158L258.867 -4.16338L1203.56 240.424L1156.91 423.238C1055.91 289.932 476.44 398.396 585.931 250.841Z" fill="url(#paint6_linear_1_3)"/>
<path d="M683.815 185.589C817.535 5.37823 242.65 209.263 312.167 -46.7619L317.221 -66.568L1223.39 167.296L1179.55 339.137C1078.54 205.831 574.322 333.144 683.815 185.589Z" fill="url(#paint7_linear_1_3)"/>
</g>
</g>
<defs>
<linearGradient id="paint0_linear_1_3" x1="36.2809" y1="132.259" x2="-17.6203" y2="347.443" gradientUnits="userSpaceOnUse">
<stop stop-color="#AF1212"/>
<stop offset="1" stop-color="#2D3D33" stop-opacity="0"/>
</linearGradient>
<linearGradient id="paint1_linear_1_3" x1="-60.4072" y1="194.08" x2="-114.308" y2="409.263" gradientUnits="userSpaceOnUse">
<stop stop-color="#C7293C"/>
<stop offset="0.776042" stop-color="#2D3D33" stop-opacity="0"/>
</linearGradient>
<linearGradient id="paint2_linear_1_3" x1="-154.641" y1="248.822" x2="-208.542" y2="464.006" gradientUnits="userSpaceOnUse">
<stop stop-color="#EE2D2D"/>
<stop offset="1" stop-color="#2D3D33" stop-opacity="0"/>
</linearGradient>
<linearGradient id="paint3_linear_1_3" x1="-249.724" y1="303.101" x2="-303.625" y2="518.284" gradientUnits="userSpaceOnUse">
<stop stop-color="#EB1919"/>
<stop offset="1" stop-color="#2D3D33" stop-opacity="0"/>
</linearGradient>
<linearGradient id="paint4_linear_1_3" x1="393.877" y1="430.679" x2="447.779" y2="215.496" gradientUnits="userSpaceOnUse">
<stop stop-color="#BF1E1E"/>
<stop offset="1" stop-color="#2D3D33" stop-opacity="0"/>
</linearGradient>
<linearGradient id="paint5_linear_1_3" x1="490.566" y1="368.859" x2="544.467" y2="153.676" gradientUnits="userSpaceOnUse">
<stop stop-color="#BB0D0D"/>
<stop offset="0.776042" stop-color="#2D3D33" stop-opacity="0"/>
</linearGradient>
<linearGradient id="paint6_linear_1_3" x1="584.802" y1="314.117" x2="638.7" y2="98.9327" gradientUnits="userSpaceOnUse">
<stop stop-color="#D11E1E"/>
<stop offset="1" stop-color="#2D3D33" stop-opacity="0"/>
</linearGradient>
<linearGradient id="paint7_linear_1_3" x1="679.884" y1="259.838" x2="733.782" y2="44.6544" gradientUnits="userSpaceOnUse">
<stop stop-color="#C82F2F"/>
<stop offset="1" stop-color="#2D3D33" stop-opacity="0"/>
</linearGradient>
<clipPath id="clip0_1_3">
<rect width="1099" height="542" fill="white"/>
</clipPath>
</defs>
</svg>
