<svg width="111" height="23" viewBox="0 0 111 23" fill="none" xmlns="http://www.w3.org/2000/svg">
<mask id="mask0_0_1" style="mask-type:alpha" maskUnits="userSpaceOnUse" x="6" y="5" width="37" height="23">
<path d="M24.5013 22.3356L24.4741 18.9907M24.4741 18.9907L26.8083 16.7047L24.5284 14.5149L24.5011 5.92408M24.4741 18.9907L24.4501 22.3356M24.4741 18.9907L22.2362 16.8972L24.4259 14.5149L24.4499 5.92408" stroke="white" stroke-width="22"/>
</mask>
<g mask="url(#mask0_0_1)">
<path d="M23.7076 6.58917L23.7117 14.0908L21.5645 16.2381C21.412 16.3906 21.3271 16.5968 21.3271 16.8122C21.3271 17.0276 21.412 17.2344 21.5645 17.3868L23.7118 19.5335L23.7118 21.3354C23.7118 21.7842 24.0762 22.1475 24.5244 22.1474C24.9732 22.1474 25.3364 21.7842 25.3364 21.3354L25.3364 19.5335L27.4831 17.3868C27.8002 17.0697 27.8001 16.5551 27.4831 16.2381L25.3363 14.0908L25.3386 6.43726C25.3386 6.43726 25.2196 5.81583 24.5335 5.85164C23.8364 5.88803 23.7076 6.58917 23.7076 6.58917ZM24.5244 18.0492L23.2873 16.8122L24.5243 15.5756L25.7614 16.8121L24.5244 18.0492Z" fill="#A90F0F" fill-opacity="0.8"/>
</g>
<mask id="mask1_0_1" style="mask-type:alpha" maskUnits="userSpaceOnUse" x="-5" y="4" width="37" height="23">
<path d="M6.065 7.56036L6.06505 13.1914C6.06505 13.1914 8.08646 15.5977 13.5731 15.5977C19.0597 15.5976 20.9848 13.5762 20.9848 13.1431C20.9848 12.7099 20.9366 7.60836 20.9366 7.60836" stroke="white" stroke-width="22"/>
</mask>
<g mask="url(#mask1_0_1)">
<path d="M20.0959 8.29621L20.1121 12.9991C17.3359 15.497 9.08637 15.2112 6.88766 13.0079L6.88127 8.2842L5.25723 7.683L5.26363 13.3238C5.26363 13.4896 5.31388 13.6513 5.40917 13.787C5.46115 13.8621 5.95611 14.5378 7.22323 15.176C8.82418 15.9816 10.9235 16.3899 13.4635 16.3899C16.0018 16.3899 18.1116 15.9827 19.7356 15.1787C21.0148 14.5452 21.5259 13.8764 21.5802 13.8019C21.6819 13.6627 21.7362 13.4952 21.7362 13.3237L21.7309 7.61412L20.0959 8.29621Z" fill="#A90F0F" fill-opacity="0.8"/>
</g>
<path d="M13.1813 10.9046C13.2812 10.9208 13.3753 11.0068 13.7386 10.9075L26.7383 6.22067C27.06 6.10458 27.2749 5.79964 27.2749 5.45716C27.2754 5.11525 27.0612 4.80974 26.7395 4.69308L13.9141 0.0486371C13.735 -0.0160458 13.5398 -0.016044 13.3608 0.0486422L0.535432 4.69332C0.214899 4.80941 0.00121235 5.11319 6.10698e-05 5.45394C-0.00166854 5.79469 0.210291 6.10021 0.52967 6.2186L13.1813 10.9046ZM13.6374 1.67556L24.073 5.45488L13.4671 9.27885L3.17305 5.46546L13.6374 1.67556Z" fill="#A90F0F" fill-opacity="0.8"/>
<path d="M13.633 2.842L20.865 5.46107L13.5152 8.11146L6.38146 5.46871L13.633 2.842Z" fill="#FD0606" fill-opacity="0.61"/>
<path d="M32.6321 8V0.727273H37.5327V1.99503H34.1697V3.72798H37.2805V4.99574H34.1697V6.73224H37.5469V8H32.6321ZM42.7005 2.81889C42.6721 2.53243 42.5501 2.3099 42.3347 2.15128C42.1193 1.99266 41.8269 1.91335 41.4576 1.91335C41.2066 1.91335 40.9947 1.94886 40.8219 2.01989C40.6491 2.08854 40.5165 2.18442 40.4242 2.30753C40.3342 2.43063 40.2892 2.57031 40.2892 2.72656C40.2845 2.85677 40.3117 2.97041 40.3709 3.06747C40.4325 3.16454 40.5165 3.24858 40.623 3.3196C40.7296 3.38826 40.8527 3.44863 40.9924 3.50071C41.132 3.55043 41.2812 3.59304 41.4398 3.62855L42.0932 3.7848C42.4105 3.85582 42.7016 3.95052 42.9668 4.06889C43.2319 4.18726 43.4616 4.33286 43.6557 4.50568C43.8498 4.6785 44.0002 4.8821 44.1067 5.11648C44.2156 5.35085 44.2712 5.61955 44.2736 5.92259C44.2712 6.36766 44.1576 6.75355 43.9327 7.08026C43.7102 7.40459 43.3882 7.65672 42.9668 7.83665C42.5478 8.0142 42.0423 8.10298 41.4505 8.10298C40.8633 8.10298 40.352 8.01302 39.9164 7.8331C39.4831 7.65317 39.1446 7.38684 38.9007 7.03409C38.6593 6.67898 38.5326 6.23982 38.5208 5.71662H40.0087C40.0253 5.96046 40.0951 6.16406 40.2182 6.32741C40.3437 6.4884 40.5106 6.61032 40.7189 6.69318C40.9296 6.77367 41.1676 6.81392 41.4327 6.81392C41.6931 6.81392 41.9192 6.77604 42.111 6.70028C42.3051 6.62453 42.4554 6.51918 42.562 6.38423C42.6685 6.24929 42.7218 6.09422 42.7218 5.91903C42.7218 5.75568 42.6732 5.61837 42.5762 5.5071C42.4815 5.39583 42.3418 5.30114 42.1571 5.22301C41.9748 5.14489 41.7511 5.07386 41.486 5.00994L40.6941 4.81108C40.0809 4.66193 39.5968 4.42874 39.2417 4.11151C38.8865 3.79427 38.7102 3.36695 38.7125 2.82955C38.7102 2.3892 38.8274 2.0045 39.0641 1.67543C39.3032 1.34635 39.6311 1.08949 40.0478 0.904829C40.4644 0.72017 40.9379 0.627841 41.4682 0.627841C42.008 0.627841 42.4791 0.72017 42.8816 0.904829C43.2864 1.08949 43.6013 1.34635 43.8262 1.67543C44.0511 2.0045 44.1671 2.38565 44.1742 2.81889H42.7005ZM45.0309 1.99503V0.727273H51.0039V1.99503H48.7773V8H47.2575V1.99503H45.0309ZM51.9876 8V0.727273H56.8881V1.99503H53.5252V3.72798H56.636V4.99574H53.5252V6.73224H56.9023V8H51.9876Z" fill="#A90F0F"/>
<path d="M60.4251 8V0.727273H61.9627V6.73224H65.0806V8H60.4251ZM66.0989 8V0.727273H70.9995V1.99503H67.6365V3.72798H70.7473V4.99574H67.6365V6.73224H71.0137V8H66.0989ZM73.4755 8H71.8278L74.3384 0.727273H76.32L78.8271 8H77.1793L75.3576 2.3892H75.3008L73.4755 8ZM73.3725 5.14134H77.2646V6.34162H73.3725V5.14134ZM79.7024 8V0.727273H82.5717C83.121 0.727273 83.5897 0.825521 83.978 1.02202C84.3686 1.21615 84.6657 1.49195 84.8693 1.84943C85.0753 2.20455 85.1783 2.6224 85.1783 3.10298C85.1783 3.58594 85.0741 4.00142 84.8658 4.34943C84.6574 4.69508 84.3556 4.96023 83.9602 5.14489C83.5672 5.32955 83.0914 5.42188 82.5327 5.42188H80.6115V4.18608H82.2841C82.5777 4.18608 82.8215 4.14583 83.0156 4.06534C83.2098 3.98485 83.3542 3.86411 83.4489 3.70312C83.5459 3.54214 83.5945 3.34209 83.5945 3.10298C83.5945 2.86151 83.5459 2.65791 83.4489 2.49219C83.3542 2.32647 83.2086 2.20099 83.0121 2.11577C82.8179 2.02817 82.5729 1.98438 82.277 1.98438H81.2401V8H79.7024ZM83.63 4.69034L85.4375 8H83.7401L81.9716 4.69034H83.63ZM92.348 0.727273V8H91.0199L87.8558 3.42259H87.8026V8H86.2649V0.727273H87.6143L90.7536 5.30114H90.8175V0.727273H92.348ZM95.1561 0.727273V8H93.6184V0.727273H95.1561ZM102.504 0.727273V8H101.176L98.0121 3.42259H97.9588V8H96.4212V0.727273H97.7706L100.91 5.30114H100.974V0.727273H102.504ZM108.597 3.07812C108.547 2.9053 108.478 2.7526 108.388 2.62003C108.298 2.48509 108.188 2.37145 108.057 2.27912C107.93 2.18442 107.783 2.11222 107.617 2.0625C107.454 2.01278 107.273 1.98793 107.074 1.98793C106.702 1.98793 106.375 2.08026 106.094 2.26491C105.814 2.44957 105.596 2.71828 105.44 3.07102C105.284 3.4214 105.206 3.84991 105.206 4.35653C105.206 4.86316 105.283 5.29403 105.437 5.64915C105.59 6.00426 105.808 6.27533 106.09 6.46236C106.372 6.64702 106.704 6.73935 107.088 6.73935C107.436 6.73935 107.733 6.67779 107.979 6.55469C108.228 6.42921 108.417 6.25284 108.547 6.02557C108.68 5.7983 108.746 5.52959 108.746 5.21946L109.059 5.26562H107.184V4.10795H110.227V5.02415C110.227 5.66335 110.092 6.21259 109.822 6.67188C109.552 7.12879 109.181 7.48153 108.707 7.73011C108.234 7.97633 107.692 8.09943 107.081 8.09943C106.399 8.09943 105.8 7.9491 105.284 7.64844C104.768 7.34541 104.365 6.91572 104.077 6.35938C103.79 5.80066 103.647 5.13778 103.647 4.37074C103.647 3.78125 103.732 3.25568 103.903 2.79403C104.075 2.33002 104.317 1.93703 104.627 1.61506C104.937 1.29309 105.298 1.04806 105.71 0.879971C106.122 0.711884 106.568 0.627841 107.049 0.627841C107.461 0.627841 107.844 0.68821 108.199 0.808949C108.555 0.92732 108.869 1.09541 109.144 1.31321C109.421 1.53101 109.647 1.79025 109.822 2.09091C109.997 2.3892 110.11 2.71828 110.16 3.07812H108.597ZM39.049 14.2734H37.4936C37.4652 14.0722 37.4072 13.8935 37.3196 13.7372C37.232 13.5786 37.1196 13.4437 36.9822 13.3324C36.8449 13.2211 36.6863 13.1359 36.5064 13.0767C36.3288 13.0175 36.1359 12.9879 35.9276 12.9879C35.5511 12.9879 35.2232 13.0814 34.9439 13.2685C34.6645 13.4531 34.4479 13.723 34.294 14.0781C34.1402 14.4309 34.0632 14.8594 34.0632 15.3636C34.0632 15.8821 34.1402 16.3177 34.294 16.6705C34.4503 17.0232 34.6681 17.2895 34.9474 17.4695C35.2268 17.6494 35.55 17.7393 35.9169 17.7393C36.1229 17.7393 36.3134 17.7121 36.4886 17.6577C36.6662 17.6032 36.8236 17.5239 36.9609 17.4197C37.0982 17.3132 37.2119 17.1842 37.3018 17.0327C37.3942 16.8812 37.4581 16.7083 37.4936 16.5142L39.049 16.5213C39.0088 16.8551 38.9081 17.1771 38.7472 17.4872C38.5885 17.795 38.3743 18.0708 38.1044 18.3146C37.8369 18.5561 37.5173 18.7479 37.1456 18.8899C36.7763 19.0296 36.3584 19.0994 35.892 19.0994C35.2434 19.0994 34.6634 18.9527 34.152 18.6591C33.643 18.3655 33.2405 17.9406 32.9446 17.3842C32.651 16.8279 32.5043 16.1544 32.5043 15.3636C32.5043 14.5705 32.6534 13.8958 32.9517 13.3395C33.25 12.7831 33.6548 12.3594 34.1662 12.0682C34.6776 11.7746 35.2528 11.6278 35.892 11.6278C36.3134 11.6278 36.7041 11.687 37.0639 11.8054C37.4261 11.9238 37.7469 12.0966 38.0263 12.3239C38.3056 12.5488 38.5329 12.8246 38.7081 13.1513C38.8857 13.478 38.9993 13.852 39.049 14.2734ZM40.1516 19V11.7273H45.0522V12.995H41.6893V14.728H44.8001V15.9957H41.6893V17.7322H45.0664V19H40.1516ZM52.3578 11.7273V19H51.0297L47.8656 14.4226H47.8123V19H46.2747V11.7273H47.6241L50.7633 16.3011H50.8272V11.7273H52.3578ZM53.3512 12.995V11.7273H59.3242V12.995H57.0977V19H55.5778V12.995H53.3512ZM60.3079 19V11.7273H65.2085V12.995H61.8455V14.728H64.9563V15.9957H61.8455V17.7322H65.2227V19H60.3079ZM66.4309 19V11.7273H69.3002C69.8495 11.7273 70.3182 11.8255 70.7065 12.022C71.0971 12.2161 71.3942 12.492 71.5978 12.8494C71.8038 13.2045 71.9068 13.6224 71.9068 14.103C71.9068 14.5859 71.8026 15.0014 71.5943 15.3494C71.3859 15.6951 71.0841 15.9602 70.6887 16.1449C70.2958 16.3295 69.8199 16.4219 69.2612 16.4219H67.34V15.1861H69.0126C69.3062 15.1861 69.55 15.1458 69.7441 15.0653C69.9383 14.9848 70.0827 14.8641 70.1774 14.7031C70.2744 14.5421 70.323 14.3421 70.323 14.103C70.323 13.8615 70.2744 13.6579 70.1774 13.4922C70.0827 13.3265 69.9371 13.201 69.7406 13.1158C69.5465 13.0282 69.3014 12.9844 69.0055 12.9844H67.9686V19H66.4309ZM70.3585 15.6903L72.166 19H70.4686L68.7001 15.6903H70.3585Z" fill="black"/>
</svg>
