<svg width="28" height="23" viewBox="0 0 28 23" fill="none" xmlns="http://www.w3.org/2000/svg">
<mask id="mask0_1_16" style="mask-type:alpha" maskUnits="userSpaceOnUse" x="6" y="5" width="37" height="23">
<path d="M24.5013 22.3356L24.4741 18.9907M24.4741 18.9907L26.8083 16.7047L24.5284 14.5149L24.5011 5.92408M24.4741 18.9907L24.4501 22.3356M24.4741 18.9907L22.2362 16.8972L24.4259 14.5149L24.4499 5.92408" stroke="white" stroke-width="22"/>
</mask>
<g mask="url(#mask0_1_16)">
<path d="M23.7076 6.58917L23.7117 14.0908L21.5645 16.2381C21.412 16.3906 21.3271 16.5968 21.3271 16.8122C21.3271 17.0276 21.412 17.2344 21.5645 17.3868L23.7118 19.5335L23.7118 21.3354C23.7118 21.7842 24.0762 22.1475 24.5244 22.1474C24.9732 22.1474 25.3364 21.7842 25.3364 21.3354L25.3364 19.5335L27.4831 17.3868C27.8002 17.0697 27.8001 16.5551 27.4831 16.2381L25.3363 14.0908L25.3386 6.43726C25.3386 6.43726 25.2196 5.81583 24.5335 5.85164C23.8364 5.88803 23.7076 6.58917 23.7076 6.58917ZM24.5244 18.0492L23.2873 16.8122L24.5243 15.5756L25.7614 16.8121L24.5244 18.0492Z" fill="#A90F0F" fill-opacity="0.8"/>
</g>
<mask id="mask1_1_16" style="mask-type:alpha" maskUnits="userSpaceOnUse" x="-5" y="4" width="37" height="23">
<path d="M6.065 7.56036L6.06505 13.1914C6.06505 13.1914 8.08646 15.5977 13.5731 15.5977C19.0597 15.5976 20.9848 13.5762 20.9848 13.1431C20.9848 12.7099 20.9366 7.60836 20.9366 7.60836" stroke="white" stroke-width="22"/>
</mask>
<g mask="url(#mask1_1_16)">
<path d="M20.0959 8.29621L20.1121 12.9991C17.3359 15.497 9.08637 15.2112 6.88766 13.0079L6.88127 8.2842L5.25723 7.683L5.26363 13.3238C5.26363 13.4896 5.31388 13.6513 5.40917 13.787C5.46115 13.8621 5.95611 14.5378 7.22323 15.176C8.82418 15.9816 10.9235 16.3899 13.4635 16.3899C16.0018 16.3899 18.1116 15.9827 19.7356 15.1787C21.0148 14.5452 21.5259 13.8764 21.5802 13.8019C21.6819 13.6627 21.7362 13.4952 21.7362 13.3237L21.7309 7.61412L20.0959 8.29621Z" fill="#A90F0F" fill-opacity="0.8"/>
</g>
<path d="M13.1813 10.9046C13.2812 10.9208 13.3753 11.0068 13.7386 10.9075L26.7383 6.22067C27.06 6.10458 27.2749 5.79964 27.2749 5.45716C27.2754 5.11525 27.0612 4.80974 26.7395 4.69308L13.9141 0.0486371C13.735 -0.0160458 13.5398 -0.016044 13.3608 0.0486422L0.535432 4.69332C0.214899 4.80941 0.00121235 5.11319 6.10698e-05 5.45394C-0.00166854 5.79469 0.210291 6.10021 0.52967 6.2186L13.1813 10.9046ZM13.6374 1.67556L24.073 5.45488L13.4671 9.27885L3.17305 5.46546L13.6374 1.67556Z" fill="#A90F0F" fill-opacity="0.8"/>
<path d="M13.633 2.842L20.865 5.46107L13.5152 8.11146L6.38146 5.46871L13.633 2.842Z" fill="#FD0606" fill-opacity="0.61"/>
</svg>
